# xmcd CD database file
#
# Track frame offsets:
#	150
#	12037
#	24548
#	40290
#	51343
#	62668
#	82615
#	95780
#	111682
#	122108
#	139302
#	157214
#	168704
#	179745
#	190098
#
# Disc length: 2664 seconds
#
# Revision: 1
# Processed by: cddbd v1.5PL3 Copyright (c) Steve Scherf et al.
# Submitted via: CDex 1.51
#
DISCID=da0a660f
DTITLE=John Lee Hooker - The Great John Lee Hooker (3)
DYEAR=1999
DGENRE=Blues
TTITLE0=Boogie Chillun
TTITLE1=One Way Ticket
TTITLE2=Crawlin' Kingsnake
TTITLE3=Bottle Up And Go
TTITLE4=This Is Hip
TTITLE5=Half A Stranger
TTITLE6=Birmingham Blues
TTITLE7=It Serves Me Right To Suffer
TTITLE8=Big Legs, Tight Skirt
TTITLE9=Blues Before Sunrise
TTITLE10=Wednesday Evening Blues
TTITLE11=Little Wheel
TTITLE12=Good Rockin' Mama
TTITLE13=Old Time Shimmy
TTITLE14=Onions
EXTD=
EXTT0=
EXTT1=
EXTT2=
EXTT3=
EXTT4=
EXTT5=
EXTT6=
EXTT7=
EXTT8=
EXTT9=
EXTT10=
EXTT11=
EXTT12=
EXTT13=
EXTT14=
PLAYORDER=
